<?xml version="1.0" encoding="utf-8"?>
<!-- Generator: Adobe Illustrator 25.0.0, SVG Export Plug-In . SVG Version: 6.00 Build 0)  -->
<svg version="1.0" id="Layer_1" xmlns="http://www.w3.org/2000/svg" xmlns:xlink="http://www.w3.org/1999/xlink" x="0px" y="0px"
	 viewBox="0 0 114 27" enable-background="new 0 0 114 27" xml:space="preserve">
<g>
	<path fill="#0280CC" d="M71.1,27V12.3C71.1,6.4,66.4,0,59.5,0S47.8,6.3,47.8,12v15h4.9V12.1c0-3.4,3-7.4,6.8-7.4c4,0,6.7,4,6.7,7.7
		V27H71.1z"/>
	<path fill="#0280CC" d="M87.2,4.7c4,0,7.4,3,8.2,7H79.1C79.8,7.7,83.2,4.7,87.2,4.7z M93.9,18.8c-1.5,2.1-3.9,3.6-6.7,3.6
		c-3.7,0-6.8-2.6-7.9-6.1H93h2h4.5c0.1-0.9,0.2-1.8,0.2-2.8C99.7,6,94,0,87.1,0c-7,0-12.7,6-12.7,13.5C74.5,21,80.2,27,87.2,27
		c4.7,0,8.8-2.8,11-6.8L93.9,18.8z"/>
	<path fill="#0280CC" d="M31.7,22.4c-4.6,0-8.3-3.9-8.3-8.8s3.7-8.8,8.3-8.8s8.3,4,8.3,8.8C40,18.5,36.3,22.4,31.7,22.4z M40,3.4
		L40,3.4c-2.2-2-5.1-3.3-8.3-3.3c-7,0-12.7,6-12.7,13.5C19,21,24.7,27,31.7,27c3.2,0,6.1-1.3,8.3-3.3V27h4.3V13.5
		C44.3,9.5,42.7,5.9,40,3.4z"/>
	<path fill="#0280CC" d="M4.3,0.1H0V27h4.3V0.1z"/>
	<path fill="#FFC352" d="M103.9,0l9.7,13.5L103.9,27c-1.6,0-2.9-1.4-2.9-3.1c0-0.6,0.2-1.3,0.6-1.8l6.2-8.6l-6.2-8.6
		c-0.4-0.6-0.6-1.2-0.6-1.8C101,1.5,102.2,0,103.9,0z"/>
	<path fill="#0280CC" d="M15,0L5.3,13.5L15,27.1c1.6,0,2.9-1.4,2.9-3.1c0-0.6-0.2-1.3-0.6-1.8l-6.2-8.6L17.3,5
		c0.4-0.6,0.6-1.2,0.6-1.8C17.9,1.5,16.7,0,15,0z"/>
</g>
</svg>
